<mxfile host="app.diagrams.net" modified="2023-11-26T14:14:01.896Z" agent="Mozilla/5.0 (Windows NT 10.0; Win64; x64) AppleWebKit/537.36 (KHTML, like Gecko) Chrome/119.0.0.0 Safari/537.36" etag="tpvkjJFbHVfaQuR_SMZL" version="22.1.4" type="github">
  <diagram id="prtHgNgQTEPvFCAcTncT" name="Page-1">
    <mxGraphModel dx="1877" dy="1711" grid="1" gridSize="10" guides="1" tooltips="1" connect="1" arrows="1" fold="1" page="1" pageScale="1" pageWidth="827" pageHeight="1169" math="0" shadow="0">
      <root>
        <mxCell id="0" />
        <mxCell id="1" parent="0" />
        <mxCell id="5fA5RqC1p00oHWjg0fGg-18" value="" style="swimlane;startSize=0;" vertex="1" parent="1">
          <mxGeometry x="-760" y="-520" width="230" height="500" as="geometry" />
        </mxCell>
        <mxCell id="5fA5RqC1p00oHWjg0fGg-19" value="Внешние источники" style="text;html=1;strokeColor=none;fillColor=none;align=center;verticalAlign=middle;whiteSpace=wrap;rounded=0;" vertex="1" parent="5fA5RqC1p00oHWjg0fGg-18">
          <mxGeometry x="30" y="20" width="120" height="30" as="geometry" />
        </mxCell>
        <mxCell id="5fA5RqC1p00oHWjg0fGg-20" value="" style="swimlane;startSize=0;" vertex="1" parent="5fA5RqC1p00oHWjg0fGg-18">
          <mxGeometry x="30" y="70" width="170" height="260" as="geometry" />
        </mxCell>
        <mxCell id="5fA5RqC1p00oHWjg0fGg-22" value="CRM" style="text;html=1;strokeColor=none;fillColor=none;align=center;verticalAlign=middle;whiteSpace=wrap;rounded=0;" vertex="1" parent="5fA5RqC1p00oHWjg0fGg-20">
          <mxGeometry x="40" y="10" width="60" height="30" as="geometry" />
        </mxCell>
        <mxCell id="5fA5RqC1p00oHWjg0fGg-23" value="" style="rounded=1;whiteSpace=wrap;html=1;" vertex="1" parent="5fA5RqC1p00oHWjg0fGg-20">
          <mxGeometry x="25" y="40" width="120" height="50" as="geometry" />
        </mxCell>
        <mxCell id="5fA5RqC1p00oHWjg0fGg-25" value="Заказы" style="text;html=1;strokeColor=none;fillColor=none;align=center;verticalAlign=middle;whiteSpace=wrap;rounded=0;" vertex="1" parent="5fA5RqC1p00oHWjg0fGg-20">
          <mxGeometry x="55" y="55" width="60" height="30" as="geometry" />
        </mxCell>
        <mxCell id="5fA5RqC1p00oHWjg0fGg-26" value="" style="rounded=1;whiteSpace=wrap;html=1;" vertex="1" parent="5fA5RqC1p00oHWjg0fGg-20">
          <mxGeometry x="25" y="110" width="120" height="50" as="geometry" />
        </mxCell>
        <mxCell id="5fA5RqC1p00oHWjg0fGg-27" value="Продукты" style="text;html=1;strokeColor=none;fillColor=none;align=center;verticalAlign=middle;whiteSpace=wrap;rounded=0;" vertex="1" parent="5fA5RqC1p00oHWjg0fGg-20">
          <mxGeometry x="55" y="125" width="60" height="30" as="geometry" />
        </mxCell>
        <mxCell id="5fA5RqC1p00oHWjg0fGg-34" value="" style="rounded=1;whiteSpace=wrap;html=1;" vertex="1" parent="5fA5RqC1p00oHWjg0fGg-20">
          <mxGeometry x="25" y="180" width="120" height="60" as="geometry" />
        </mxCell>
        <mxCell id="5fA5RqC1p00oHWjg0fGg-35" value="Возвраты" style="text;html=1;strokeColor=none;fillColor=none;align=center;verticalAlign=middle;whiteSpace=wrap;rounded=0;" vertex="1" parent="5fA5RqC1p00oHWjg0fGg-20">
          <mxGeometry x="55" y="195" width="60" height="30" as="geometry" />
        </mxCell>
        <mxCell id="5fA5RqC1p00oHWjg0fGg-28" value="" style="swimlane;startSize=0;" vertex="1" parent="5fA5RqC1p00oHWjg0fGg-18">
          <mxGeometry x="30" y="360" width="170" height="110" as="geometry" />
        </mxCell>
        <mxCell id="5fA5RqC1p00oHWjg0fGg-29" value="Auth" style="text;html=1;strokeColor=none;fillColor=none;align=center;verticalAlign=middle;whiteSpace=wrap;rounded=0;" vertex="1" parent="5fA5RqC1p00oHWjg0fGg-28">
          <mxGeometry x="40" y="10" width="60" height="20" as="geometry" />
        </mxCell>
        <mxCell id="5fA5RqC1p00oHWjg0fGg-30" value="" style="rounded=1;whiteSpace=wrap;html=1;" vertex="1" parent="5fA5RqC1p00oHWjg0fGg-28">
          <mxGeometry x="25" y="40" width="120" height="60" as="geometry" />
        </mxCell>
        <mxCell id="5fA5RqC1p00oHWjg0fGg-31" value="Покупатели" style="text;html=1;strokeColor=none;fillColor=none;align=center;verticalAlign=middle;whiteSpace=wrap;rounded=0;" vertex="1" parent="5fA5RqC1p00oHWjg0fGg-28">
          <mxGeometry x="55" y="55" width="60" height="30" as="geometry" />
        </mxCell>
        <mxCell id="5fA5RqC1p00oHWjg0fGg-36" value="" style="swimlane;startSize=0;" vertex="1" parent="1">
          <mxGeometry x="-490" y="-520" width="470" height="500" as="geometry" />
        </mxCell>
        <mxCell id="5fA5RqC1p00oHWjg0fGg-37" value="" style="swimlane;startSize=0;" vertex="1" parent="5fA5RqC1p00oHWjg0fGg-36">
          <mxGeometry x="30" y="10" width="130" height="480" as="geometry" />
        </mxCell>
        <mxCell id="5fA5RqC1p00oHWjg0fGg-38" value="Primary data" style="text;html=1;strokeColor=none;fillColor=none;align=center;verticalAlign=middle;whiteSpace=wrap;rounded=0;" vertex="1" parent="5fA5RqC1p00oHWjg0fGg-37">
          <mxGeometry x="17" width="73" height="30" as="geometry" />
        </mxCell>
        <mxCell id="5fA5RqC1p00oHWjg0fGg-43" value="" style="rounded=1;whiteSpace=wrap;html=1;" vertex="1" parent="5fA5RqC1p00oHWjg0fGg-37">
          <mxGeometry x="10" y="60" width="100" height="50" as="geometry" />
        </mxCell>
        <mxCell id="5fA5RqC1p00oHWjg0fGg-44" value="Заказы" style="text;html=1;strokeColor=none;fillColor=none;align=center;verticalAlign=middle;whiteSpace=wrap;rounded=0;" vertex="1" parent="5fA5RqC1p00oHWjg0fGg-37">
          <mxGeometry x="40" y="75" width="60" height="30" as="geometry" />
        </mxCell>
        <mxCell id="5fA5RqC1p00oHWjg0fGg-45" value="" style="rounded=1;whiteSpace=wrap;html=1;" vertex="1" parent="5fA5RqC1p00oHWjg0fGg-37">
          <mxGeometry x="10" y="130" width="100" height="50" as="geometry" />
        </mxCell>
        <mxCell id="5fA5RqC1p00oHWjg0fGg-46" value="Продукты" style="text;html=1;strokeColor=none;fillColor=none;align=center;verticalAlign=middle;whiteSpace=wrap;rounded=0;" vertex="1" parent="5fA5RqC1p00oHWjg0fGg-37">
          <mxGeometry x="40" y="145" width="60" height="30" as="geometry" />
        </mxCell>
        <mxCell id="5fA5RqC1p00oHWjg0fGg-47" value="" style="rounded=1;whiteSpace=wrap;html=1;" vertex="1" parent="5fA5RqC1p00oHWjg0fGg-37">
          <mxGeometry x="10" y="320" width="100" height="60" as="geometry" />
        </mxCell>
        <mxCell id="5fA5RqC1p00oHWjg0fGg-48" value="Возвраты" style="text;html=1;strokeColor=none;fillColor=none;align=center;verticalAlign=middle;whiteSpace=wrap;rounded=0;" vertex="1" parent="5fA5RqC1p00oHWjg0fGg-37">
          <mxGeometry x="40" y="335" width="60" height="30" as="geometry" />
        </mxCell>
        <mxCell id="5fA5RqC1p00oHWjg0fGg-49" value="" style="rounded=1;whiteSpace=wrap;html=1;" vertex="1" parent="5fA5RqC1p00oHWjg0fGg-37">
          <mxGeometry x="10" y="410" width="110" height="60" as="geometry" />
        </mxCell>
        <mxCell id="5fA5RqC1p00oHWjg0fGg-50" value="Покупатели" style="text;html=1;strokeColor=none;fillColor=none;align=center;verticalAlign=middle;whiteSpace=wrap;rounded=0;" vertex="1" parent="5fA5RqC1p00oHWjg0fGg-37">
          <mxGeometry x="40" y="425" width="60" height="30" as="geometry" />
        </mxCell>
        <mxCell id="5fA5RqC1p00oHWjg0fGg-39" value="" style="swimlane;startSize=0;" vertex="1" parent="5fA5RqC1p00oHWjg0fGg-36">
          <mxGeometry x="185" y="30" width="115" height="460" as="geometry" />
        </mxCell>
        <mxCell id="5fA5RqC1p00oHWjg0fGg-40" value="Core data" style="text;html=1;strokeColor=none;fillColor=none;align=center;verticalAlign=middle;whiteSpace=wrap;rounded=0;" vertex="1" parent="5fA5RqC1p00oHWjg0fGg-39">
          <mxGeometry x="17" width="73" height="30" as="geometry" />
        </mxCell>
        <mxCell id="5fA5RqC1p00oHWjg0fGg-55" value="" style="rounded=1;whiteSpace=wrap;html=1;" vertex="1" parent="5fA5RqC1p00oHWjg0fGg-39">
          <mxGeometry x="8.25" y="30" width="90" height="40" as="geometry" />
        </mxCell>
        <mxCell id="5fA5RqC1p00oHWjg0fGg-56" value="Order" style="text;html=1;strokeColor=none;fillColor=none;align=center;verticalAlign=middle;whiteSpace=wrap;rounded=0;" vertex="1" parent="5fA5RqC1p00oHWjg0fGg-39">
          <mxGeometry x="24" y="37.5" width="56" height="25" as="geometry" />
        </mxCell>
        <mxCell id="5fA5RqC1p00oHWjg0fGg-59" value="" style="rounded=1;whiteSpace=wrap;html=1;" vertex="1" parent="5fA5RqC1p00oHWjg0fGg-39">
          <mxGeometry x="10" y="80" width="90" height="50" as="geometry" />
        </mxCell>
        <mxCell id="5fA5RqC1p00oHWjg0fGg-60" value="Order_product" style="text;html=1;strokeColor=none;fillColor=none;align=center;verticalAlign=middle;whiteSpace=wrap;rounded=0;" vertex="1" parent="5fA5RqC1p00oHWjg0fGg-39">
          <mxGeometry x="24" y="95" width="56" height="25" as="geometry" />
        </mxCell>
        <mxCell id="5fA5RqC1p00oHWjg0fGg-61" value="" style="rounded=1;whiteSpace=wrap;html=1;" vertex="1" parent="5fA5RqC1p00oHWjg0fGg-39">
          <mxGeometry x="10" y="140" width="90" height="50" as="geometry" />
        </mxCell>
        <mxCell id="5fA5RqC1p00oHWjg0fGg-62" value="Product" style="text;html=1;strokeColor=none;fillColor=none;align=center;verticalAlign=middle;whiteSpace=wrap;rounded=0;" vertex="1" parent="5fA5RqC1p00oHWjg0fGg-39">
          <mxGeometry x="24" y="150" width="56" height="30" as="geometry" />
        </mxCell>
        <mxCell id="5fA5RqC1p00oHWjg0fGg-71" value="" style="rounded=1;whiteSpace=wrap;html=1;" vertex="1" parent="5fA5RqC1p00oHWjg0fGg-39">
          <mxGeometry x="2.5" y="205" width="110" height="50" as="geometry" />
        </mxCell>
        <mxCell id="5fA5RqC1p00oHWjg0fGg-72" value="Product_category" style="text;html=1;strokeColor=none;fillColor=none;align=center;verticalAlign=middle;whiteSpace=wrap;rounded=0;" vertex="1" parent="5fA5RqC1p00oHWjg0fGg-39">
          <mxGeometry x="27.25" y="220" width="56" height="25" as="geometry" />
        </mxCell>
        <mxCell id="5fA5RqC1p00oHWjg0fGg-73" value="" style="rounded=1;whiteSpace=wrap;html=1;" vertex="1" parent="5fA5RqC1p00oHWjg0fGg-39">
          <mxGeometry x="10" y="400" width="90" height="50" as="geometry" />
        </mxCell>
        <mxCell id="5fA5RqC1p00oHWjg0fGg-74" value="Customer" style="text;html=1;strokeColor=none;fillColor=none;align=center;verticalAlign=middle;whiteSpace=wrap;rounded=0;" vertex="1" parent="5fA5RqC1p00oHWjg0fGg-39">
          <mxGeometry x="24" y="415" width="56" height="25" as="geometry" />
        </mxCell>
        <mxCell id="5fA5RqC1p00oHWjg0fGg-70" value="Text" style="text;html=1;strokeColor=none;fillColor=none;align=center;verticalAlign=middle;whiteSpace=wrap;rounded=0;" vertex="1" parent="5fA5RqC1p00oHWjg0fGg-39">
          <mxGeometry x="26.5" y="295" width="56" height="25" as="geometry" />
        </mxCell>
        <mxCell id="5fA5RqC1p00oHWjg0fGg-69" value="" style="rounded=1;whiteSpace=wrap;html=1;" vertex="1" parent="5fA5RqC1p00oHWjg0fGg-39">
          <mxGeometry x="12.5" y="280" width="90" height="50" as="geometry" />
        </mxCell>
        <mxCell id="5fA5RqC1p00oHWjg0fGg-67" value="" style="rounded=1;whiteSpace=wrap;html=1;" vertex="1" parent="5fA5RqC1p00oHWjg0fGg-39">
          <mxGeometry x="12.5" y="340" width="90" height="50" as="geometry" />
        </mxCell>
        <mxCell id="5fA5RqC1p00oHWjg0fGg-68" value="Return_reasons" style="text;html=1;strokeColor=none;fillColor=none;align=center;verticalAlign=middle;whiteSpace=wrap;rounded=0;" vertex="1" parent="5fA5RqC1p00oHWjg0fGg-39">
          <mxGeometry x="26.5" y="355" width="56" height="25" as="geometry" />
        </mxCell>
        <mxCell id="5fA5RqC1p00oHWjg0fGg-75" value="Returns" style="text;html=1;strokeColor=none;fillColor=none;align=center;verticalAlign=middle;whiteSpace=wrap;rounded=0;" vertex="1" parent="5fA5RqC1p00oHWjg0fGg-39">
          <mxGeometry x="29.5" y="295" width="56" height="25" as="geometry" />
        </mxCell>
        <mxCell id="5fA5RqC1p00oHWjg0fGg-41" value="" style="swimlane;startSize=0;" vertex="1" parent="5fA5RqC1p00oHWjg0fGg-36">
          <mxGeometry x="330" y="30" width="130" height="440" as="geometry" />
        </mxCell>
        <mxCell id="5fA5RqC1p00oHWjg0fGg-42" value="DataMart" style="text;html=1;strokeColor=none;fillColor=none;align=center;verticalAlign=middle;whiteSpace=wrap;rounded=0;" vertex="1" parent="5fA5RqC1p00oHWjg0fGg-41">
          <mxGeometry x="17" width="73" height="30" as="geometry" />
        </mxCell>
        <mxCell id="5fA5RqC1p00oHWjg0fGg-89" value="" style="rounded=1;whiteSpace=wrap;html=1;" vertex="1" parent="5fA5RqC1p00oHWjg0fGg-41">
          <mxGeometry x="17" y="342.5" width="100" height="50" as="geometry" />
        </mxCell>
        <mxCell id="5fA5RqC1p00oHWjg0fGg-90" value="Month_dim" style="text;html=1;strokeColor=none;fillColor=none;align=center;verticalAlign=middle;whiteSpace=wrap;rounded=0;" vertex="1" parent="5fA5RqC1p00oHWjg0fGg-41">
          <mxGeometry x="47" y="357.5" width="60" height="30" as="geometry" />
        </mxCell>
        <mxCell id="5fA5RqC1p00oHWjg0fGg-91" value="" style="rounded=1;whiteSpace=wrap;html=1;" vertex="1" parent="5fA5RqC1p00oHWjg0fGg-41">
          <mxGeometry x="17" y="240" width="100" height="50" as="geometry" />
        </mxCell>
        <mxCell id="5fA5RqC1p00oHWjg0fGg-92" value="Sales_fact" style="text;html=1;strokeColor=none;fillColor=none;align=center;verticalAlign=middle;whiteSpace=wrap;rounded=0;" vertex="1" parent="5fA5RqC1p00oHWjg0fGg-41">
          <mxGeometry x="30" y="250" width="60" height="30" as="geometry" />
        </mxCell>
        <mxCell id="5fA5RqC1p00oHWjg0fGg-93" value="" style="rounded=1;whiteSpace=wrap;html=1;" vertex="1" parent="5fA5RqC1p00oHWjg0fGg-41">
          <mxGeometry x="15.88" y="70" width="100" height="50" as="geometry" />
        </mxCell>
        <mxCell id="5fA5RqC1p00oHWjg0fGg-94" value="Product_dim" style="text;html=1;strokeColor=none;fillColor=none;align=center;verticalAlign=middle;whiteSpace=wrap;rounded=0;" vertex="1" parent="5fA5RqC1p00oHWjg0fGg-41">
          <mxGeometry x="35.88" y="80" width="60" height="30" as="geometry" />
        </mxCell>
        <mxCell id="5fA5RqC1p00oHWjg0fGg-95" value="" style="rounded=1;whiteSpace=wrap;html=1;" vertex="1" parent="5fA5RqC1p00oHWjg0fGg-41">
          <mxGeometry x="1.75" y="150" width="128.25" height="50" as="geometry" />
        </mxCell>
        <mxCell id="5fA5RqC1p00oHWjg0fGg-96" value="Productcategory_dim" style="text;html=1;strokeColor=none;fillColor=none;align=center;verticalAlign=middle;whiteSpace=wrap;rounded=0;" vertex="1" parent="5fA5RqC1p00oHWjg0fGg-41">
          <mxGeometry x="31.75" y="165" width="68.25" height="30" as="geometry" />
        </mxCell>
        <mxCell id="5fA5RqC1p00oHWjg0fGg-76" value="" style="endArrow=classic;html=1;rounded=0;exitX=1;exitY=0.5;exitDx=0;exitDy=0;" edge="1" parent="5fA5RqC1p00oHWjg0fGg-36" source="5fA5RqC1p00oHWjg0fGg-43" target="5fA5RqC1p00oHWjg0fGg-55">
          <mxGeometry width="50" height="50" relative="1" as="geometry">
            <mxPoint x="70" y="290" as="sourcePoint" />
            <mxPoint x="120" y="240" as="targetPoint" />
          </mxGeometry>
        </mxCell>
        <mxCell id="5fA5RqC1p00oHWjg0fGg-77" value="" style="endArrow=classic;html=1;rounded=0;exitX=1;exitY=0.75;exitDx=0;exitDy=0;entryX=0;entryY=0.25;entryDx=0;entryDy=0;" edge="1" parent="5fA5RqC1p00oHWjg0fGg-36" source="5fA5RqC1p00oHWjg0fGg-43" target="5fA5RqC1p00oHWjg0fGg-59">
          <mxGeometry width="50" height="50" relative="1" as="geometry">
            <mxPoint x="90" y="260" as="sourcePoint" />
            <mxPoint x="140" y="210" as="targetPoint" />
          </mxGeometry>
        </mxCell>
        <mxCell id="5fA5RqC1p00oHWjg0fGg-78" value="" style="endArrow=classic;html=1;rounded=0;entryX=0;entryY=0.5;entryDx=0;entryDy=0;exitX=1;exitY=0.5;exitDx=0;exitDy=0;" edge="1" parent="5fA5RqC1p00oHWjg0fGg-36" source="5fA5RqC1p00oHWjg0fGg-45" target="5fA5RqC1p00oHWjg0fGg-61">
          <mxGeometry width="50" height="50" relative="1" as="geometry">
            <mxPoint x="70" y="270" as="sourcePoint" />
            <mxPoint x="120" y="220" as="targetPoint" />
          </mxGeometry>
        </mxCell>
        <mxCell id="5fA5RqC1p00oHWjg0fGg-79" value="" style="endArrow=classic;html=1;rounded=0;entryX=0;entryY=0.5;entryDx=0;entryDy=0;exitX=1;exitY=0.75;exitDx=0;exitDy=0;" edge="1" parent="5fA5RqC1p00oHWjg0fGg-36" source="5fA5RqC1p00oHWjg0fGg-45" target="5fA5RqC1p00oHWjg0fGg-71">
          <mxGeometry width="50" height="50" relative="1" as="geometry">
            <mxPoint x="80" y="260" as="sourcePoint" />
            <mxPoint x="130" y="210" as="targetPoint" />
          </mxGeometry>
        </mxCell>
        <mxCell id="5fA5RqC1p00oHWjg0fGg-80" value="" style="endArrow=classic;html=1;rounded=0;entryX=0;entryY=0.5;entryDx=0;entryDy=0;exitX=1;exitY=0.5;exitDx=0;exitDy=0;" edge="1" parent="5fA5RqC1p00oHWjg0fGg-36" source="5fA5RqC1p00oHWjg0fGg-47" target="5fA5RqC1p00oHWjg0fGg-69">
          <mxGeometry width="50" height="50" relative="1" as="geometry">
            <mxPoint x="60" y="310" as="sourcePoint" />
            <mxPoint x="110" y="260" as="targetPoint" />
          </mxGeometry>
        </mxCell>
        <mxCell id="5fA5RqC1p00oHWjg0fGg-81" value="" style="endArrow=classic;html=1;rounded=0;entryX=0;entryY=0.5;entryDx=0;entryDy=0;exitX=1;exitY=0.75;exitDx=0;exitDy=0;" edge="1" parent="5fA5RqC1p00oHWjg0fGg-36" source="5fA5RqC1p00oHWjg0fGg-47" target="5fA5RqC1p00oHWjg0fGg-67">
          <mxGeometry width="50" height="50" relative="1" as="geometry">
            <mxPoint x="90" y="290" as="sourcePoint" />
            <mxPoint x="140" y="240" as="targetPoint" />
          </mxGeometry>
        </mxCell>
        <mxCell id="5fA5RqC1p00oHWjg0fGg-82" value="" style="endArrow=classic;html=1;rounded=0;exitX=1;exitY=0.5;exitDx=0;exitDy=0;entryX=0;entryY=0.5;entryDx=0;entryDy=0;" edge="1" parent="5fA5RqC1p00oHWjg0fGg-36" source="5fA5RqC1p00oHWjg0fGg-49" target="5fA5RqC1p00oHWjg0fGg-73">
          <mxGeometry width="50" height="50" relative="1" as="geometry">
            <mxPoint x="80" y="290" as="sourcePoint" />
            <mxPoint x="130" y="240" as="targetPoint" />
          </mxGeometry>
        </mxCell>
        <mxCell id="5fA5RqC1p00oHWjg0fGg-97" value="" style="endArrow=classic;html=1;rounded=0;entryX=0;entryY=0.5;entryDx=0;entryDy=0;exitX=1;exitY=0.5;exitDx=0;exitDy=0;" edge="1" parent="5fA5RqC1p00oHWjg0fGg-36" source="5fA5RqC1p00oHWjg0fGg-61" target="5fA5RqC1p00oHWjg0fGg-93">
          <mxGeometry width="50" height="50" relative="1" as="geometry">
            <mxPoint x="310" y="120" as="sourcePoint" />
            <mxPoint x="360" y="70" as="targetPoint" />
          </mxGeometry>
        </mxCell>
        <mxCell id="5fA5RqC1p00oHWjg0fGg-98" value="" style="endArrow=classic;html=1;rounded=0;exitX=1;exitY=0.75;exitDx=0;exitDy=0;" edge="1" parent="5fA5RqC1p00oHWjg0fGg-36" source="5fA5RqC1p00oHWjg0fGg-71" target="5fA5RqC1p00oHWjg0fGg-95">
          <mxGeometry width="50" height="50" relative="1" as="geometry">
            <mxPoint x="300" y="300" as="sourcePoint" />
            <mxPoint x="350" y="250" as="targetPoint" />
          </mxGeometry>
        </mxCell>
        <mxCell id="5fA5RqC1p00oHWjg0fGg-99" value="" style="endArrow=classic;html=1;rounded=0;entryX=0;entryY=0.5;entryDx=0;entryDy=0;exitX=1;exitY=0.5;exitDx=0;exitDy=0;" edge="1" parent="5fA5RqC1p00oHWjg0fGg-36" source="5fA5RqC1p00oHWjg0fGg-69" target="5fA5RqC1p00oHWjg0fGg-91">
          <mxGeometry width="50" height="50" relative="1" as="geometry">
            <mxPoint x="290" y="360" as="sourcePoint" />
            <mxPoint x="340" y="310" as="targetPoint" />
          </mxGeometry>
        </mxCell>
        <mxCell id="5fA5RqC1p00oHWjg0fGg-100" value="" style="endArrow=classic;html=1;rounded=0;entryX=0;entryY=0.25;entryDx=0;entryDy=0;exitX=1;exitY=0.5;exitDx=0;exitDy=0;" edge="1" parent="5fA5RqC1p00oHWjg0fGg-36" source="5fA5RqC1p00oHWjg0fGg-55" target="5fA5RqC1p00oHWjg0fGg-91">
          <mxGeometry width="50" height="50" relative="1" as="geometry">
            <mxPoint x="60" y="290" as="sourcePoint" />
            <mxPoint x="110" y="240" as="targetPoint" />
          </mxGeometry>
        </mxCell>
        <mxCell id="5fA5RqC1p00oHWjg0fGg-101" value="" style="endArrow=classic;html=1;rounded=0;entryX=0;entryY=0.5;entryDx=0;entryDy=0;exitX=1;exitY=0.75;exitDx=0;exitDy=0;" edge="1" parent="5fA5RqC1p00oHWjg0fGg-36" source="5fA5RqC1p00oHWjg0fGg-59" target="5fA5RqC1p00oHWjg0fGg-91">
          <mxGeometry width="50" height="50" relative="1" as="geometry">
            <mxPoint x="80" y="290" as="sourcePoint" />
            <mxPoint x="130" y="240" as="targetPoint" />
          </mxGeometry>
        </mxCell>
        <mxCell id="5fA5RqC1p00oHWjg0fGg-51" value="" style="endArrow=classic;html=1;rounded=0;exitX=1;exitY=0.5;exitDx=0;exitDy=0;entryX=0;entryY=0.5;entryDx=0;entryDy=0;" edge="1" parent="1" source="5fA5RqC1p00oHWjg0fGg-30" target="5fA5RqC1p00oHWjg0fGg-49">
          <mxGeometry width="50" height="50" relative="1" as="geometry">
            <mxPoint x="-500" y="-90" as="sourcePoint" />
            <mxPoint x="-450" y="-140" as="targetPoint" />
          </mxGeometry>
        </mxCell>
        <mxCell id="5fA5RqC1p00oHWjg0fGg-52" value="" style="endArrow=classic;html=1;rounded=0;exitX=1;exitY=0.5;exitDx=0;exitDy=0;entryX=0;entryY=0.5;entryDx=0;entryDy=0;" edge="1" parent="1" source="5fA5RqC1p00oHWjg0fGg-34" target="5fA5RqC1p00oHWjg0fGg-47">
          <mxGeometry width="50" height="50" relative="1" as="geometry">
            <mxPoint x="-500" y="-210" as="sourcePoint" />
            <mxPoint x="-470" y="-250" as="targetPoint" />
          </mxGeometry>
        </mxCell>
        <mxCell id="5fA5RqC1p00oHWjg0fGg-53" value="" style="endArrow=classic;html=1;rounded=0;exitX=1;exitY=0.5;exitDx=0;exitDy=0;entryX=0;entryY=0.5;entryDx=0;entryDy=0;" edge="1" parent="1" source="5fA5RqC1p00oHWjg0fGg-26" target="5fA5RqC1p00oHWjg0fGg-45">
          <mxGeometry width="50" height="50" relative="1" as="geometry">
            <mxPoint x="-500" y="-290" as="sourcePoint" />
            <mxPoint x="-490" y="-330" as="targetPoint" />
          </mxGeometry>
        </mxCell>
        <mxCell id="5fA5RqC1p00oHWjg0fGg-54" value="" style="endArrow=classic;html=1;rounded=0;entryX=0;entryY=0.5;entryDx=0;entryDy=0;exitX=1;exitY=0.5;exitDx=0;exitDy=0;" edge="1" parent="1" source="5fA5RqC1p00oHWjg0fGg-23" target="5fA5RqC1p00oHWjg0fGg-43">
          <mxGeometry width="50" height="50" relative="1" as="geometry">
            <mxPoint x="-620" y="-380" as="sourcePoint" />
            <mxPoint x="-570" y="-430" as="targetPoint" />
          </mxGeometry>
        </mxCell>
      </root>
    </mxGraphModel>
  </diagram>
</mxfile>
